<?xml version="1.0" ?><!DOCTYPE svg  PUBLIC '-//W3C//DTD SVG 20010904//EN'  'http://www.w3.org/TR/2001/REC-SVG-20010904/DTD/svg10.dtd'><svg height="256.000000pt" preserveAspectRatio="xMidYMid meet" version="1.0" viewBox="0 0 256.000000 256.000000" width="256.000000pt" xmlns="http://www.w3.org/2000/svg"><g fill="#000000" stroke="none" transform="translate(0.000000,256.000000) scale(0.100000,-0.100000)"><path d="M1145 2469 c-301 -39 -580 -182 -768 -396 -364 -414 -395 -1084 -71 -1527 l52 -71 -19 -24 c-11 -13 -19 -35 -19 -50 0 -40 51 -119 121 -190 80 -79 139 -121 184 -128 33 -5 40 1 242 195 114 110 525 518 912 905 l704 705 -6 37 c-15 90 -247 315 -325 315 -11 0 -31 -9 -45 -20 l-26 -21 -60 48 c-226 182 -547 264 -876 222z m325 -124 c116 -19 254 -64 340 -112 67 -37 179 -114 180 -123 0 -3 -42 -47 -94 -99 l-93 -93 -41 27 -40 26 15 39 c13 32 13 42 3 55 -19 23 -37 18 -65 -19 l-26 -34 -57 23 c-51 21 -57 26 -55 52 3 54 -6 73 -33 73 -21 0 -29 -8 -41 -39 l-15 -39 -57 5 c-31 3 -58 8 -61 10 -3 2 -10 23 -15 46 -9 33 -16 43 -34 45 -29 4 -41 -12 -41 -55 0 -24 -5 -33 -17 -34 -10 0 -40 -4 -66 -8 l-48 -8 -17 36 c-13 27 -23 36 -42 36 -23 0 -25 -4 -25 -45 l0 -45 -60 -28 -59 -28 -24 31 c-44 56 -87 30 -62 -38 12 -33 11 -36 -16 -59 -67 -56 -70 -57 -103 -34 -34 25 -54 26 -70 7 -14 -17 -5 -41 27 -70 21 -18 21 -18 -16 -69 -20 -29 -36 -53 -37 -54 0 -1 -22 6 -49 15 -46 17 -48 16 -62 -3 -14 -19 -12 -23 25 -56 l40 -36 -22 -56 -22 -56 -55 2 c-52 2 -55 1 -55 -23 0 -20 9 -29 43 -45 l43 -20 -7 -55 c-8 -68 -9 -70 -39 -70 -41 0 -75 -18 -75 -40 0 -22 34 -40 76 -40 21 0 24 -5 24 -34 0 -18 3 -48 6 -65 6 -28 4 -32 -30 -46 -42 -18 -54 -38 -35 -61 9 -11 24 -15 49 -11 l35 4 21 -65 21 -65 -25 -22 c-19 -16 -23 -27 -17 -44 6 -20 12 -23 45 -17 35 5 39 3 63 -33 l25 -38 -89 -89 -89 -89 -25 30 c-39 49 -107 173 -142 259 -93 234 -102 540 -21 781 164 495 676 796 1208 710z m816 -302 c34 -35 64 -73 68 -86 5 -19 -119 -146 -852 -879 -638 -639 -863 -858 -880 -858 -30 0 -148 115 -158 154 -6 27 12 47 352 387 292 292 363 359 379 354 45 -14 115 -17 148 -6 46 16 104 80 113 126 6 35 2 87 -11 130 -5 16 64 90 362 387 327 326 371 367 392 361 14 -3 53 -35 87 -70z m-859 -79 c93 -19 160 -45 237 -91 l58 -36 -191 -191 -191 -191 -63 0 c-54 0 -69 -4 -101 -28 -56 -43 -71 -73 -73 -146 l-1 -64 -193 -193 c-106 -106 -196 -191 -201 -188 -17 11 -61 97 -84 165 -54 160 -52 350 5 517 40 114 83 184 172 273 62 63 93 85 170 123 52 25 117 49 144 54 80 15 229 13 312 -4z m-93 -629 c17 -16 26 -34 26 -55 0 -38 -42 -80 -80 -80 -38 0 -80 42 -80 80 0 38 42 80 80 80 15 0 39 -11 54 -25z"/></g></svg>