<?xml version="1.0" standalone="no"?>
<!DOCTYPE svg PUBLIC "-//W3C//DTD SVG 20010904//EN"
 "http://www.w3.org/TR/2001/REC-SVG-20010904/DTD/svg10.dtd">
<svg version="1.0" xmlns="http://www.w3.org/2000/svg"
 width="320.000000pt" height="320.000000pt" viewBox="0 0 320.000000 320.000000"
 preserveAspectRatio="xMidYMid meet">
<metadata>
Created by potrace 1.14, written by Peter Selinger 2001-2017
</metadata>
<g transform="translate(0.000000,320.000000) scale(0.100000,-0.100000)"
fill="#000000" stroke="none">
<path d="M2780 3138 c-77 -35 -2663 -1259 -2704 -1280 l-38 -20 33 -34 c18
-19 38 -34 43 -34 6 0 46 -37 90 -82 43 -46 71 -72 61 -58 -10 14 33 -27 95
-90 62 -63 105 -104 95 -90 -21 29 85 -77 132 -133 18 -20 38 -36 45 -35 7 2
12 -4 13 -12 0 -8 15 -24 32 -36 18 -12 65 -55 104 -95 40 -41 63 -63 53 -49
-13 17 -7 14 19 -9 20 -19 37 -39 37 -45 0 -5 -21 -30 -48 -54 -26 -24 -38
-39 -27 -32 11 7 -9 -16 -45 -50 -36 -34 -56 -57 -45 -50 11 7 -11 -18 -50
-55 -38 -37 -61 -62 -50 -55 11 7 -9 -16 -45 -50 -36 -34 -56 -57 -45 -50 11
7 -9 -15 -45 -48 -36 -33 -65 -65 -65 -71 0 -6 -22 -31 -50 -57 -27 -25 -41
-41 -30 -34 11 7 -9 -16 -45 -50 -36 -34 -56 -56 -45 -49 16 11 15 8 -4 -13
-13 -15 -28 -25 -32 -22 -5 3 -9 1 -9 -4 0 -5 34 -40 75 -77 l75 -67 42 43
c24 23 34 36 23 29 -11 -7 9 16 45 50 36 34 56 57 45 50 -11 -7 15 20 57 61
42 41 164 171 270 290 121 134 200 214 209 211 8 -2 50 -41 94 -87 44 -45 71
-70 60 -56 -14 19 -9 16 18 -8 20 -19 37 -39 37 -44 0 -13 112 -117 121 -112
3 3 15 -5 25 -18 l19 -22 -25 20 -25 20 19 -22 c10 -13 22 -21 26 -18 4 2 46
-38 94 -91 48 -52 91 -92 95 -89 5 2 47 -38 95 -90 48 -52 91 -94 96 -92 5 1
45 -36 89 -83 56 -60 81 -81 85 -70 3 8 224 695 491 1526 380 1185 485 1523
485 1563 l0 51 -62 -1 c-41 0 -79 -8 -108 -21z m-361 -417 c9 7 -13 -16 -49
-51 -36 -34 -58 -59 -50 -55 8 4 -14 -21 -50 -55 -36 -35 -58 -59 -50 -54 10
6 9 3 -2 -8 -10 -9 -22 -18 -26 -20 -11 -4 -1126 -1238 -1131 -1251 -2 -5 -11
-17 -20 -26 -15 -15 -20 -12 -75 44 -32 33 -51 49 -41 35 10 -14 -33 27 -95
90 -62 63 -105 104 -95 90 10 -14 -33 28 -96 93 -63 65 -119 118 -126 117 -14
0 -103 102 -103 119 0 7 5 9 10 6 6 -3 10 -1 10 5 0 6 4 9 9 6 5 -4 11 -1 13
4 2 6 13 12 26 13 12 0 22 5 22 10 0 4 5 5 10 2 6 -3 10 -1 10 5 0 6 5 8 10 5
6 -3 10 -1 10 5 0 6 5 8 10 5 6 -3 10 -1 10 5 0 6 5 8 10 5 6 -3 10 -1 10 5 0
6 5 8 10 5 6 -3 10 -1 10 5 0 6 5 8 10 5 6 -3 10 -1 10 5 0 6 4 9 9 6 5 -4 11
-1 13 4 2 6 13 12 26 13 12 0 22 5 22 10 0 4 5 5 10 2 5 -3 10 -1 10 5 0 6 5
8 10 5 6 -3 10 -1 10 5 0 6 5 8 10 5 6 -3 10 -1 10 5 0 6 5 8 10 5 6 -3 10 -1
10 5 0 6 5 8 10 5 6 -3 10 -1 10 5 0 6 5 8 10 5 5 -3 10 -1 10 5 0 6 4 9 9 6
5 -4 11 -1 13 4 2 6 13 12 26 13 12 0 22 5 22 10 0 4 5 5 10 2 6 -3 10 -1 10
5 0 6 5 8 10 5 6 -3 10 -1 10 5 0 6 5 8 10 5 6 -3 10 -1 10 5 0 6 5 8 10 5 6
-3 10 -1 10 5 0 6 5 8 10 5 6 -3 10 -1 10 5 0 6 5 8 10 5 6 -3 10 -2 10 3 0
12 56 33 64 25 3 -4 6 -1 6 6 0 7 5 9 10 6 6 -3 10 -1 10 5 0 6 5 8 10 5 6 -3
10 -1 10 5 0 6 5 8 10 5 6 -3 10 -1 10 5 0 6 5 8 10 5 5 -3 10 -1 10 5 0 6 5
8 10 5 6 -3 10 -1 10 5 0 6 4 9 9 6 5 -4 11 -1 13 4 2 6 13 12 26 13 12 0 22
5 22 10 0 4 5 5 10 2 6 -3 10 -1 10 5 0 6 5 8 10 5 6 -3 10 -1 10 5 0 6 5 8
10 5 6 -3 10 -1 10 5 0 6 5 8 10 5 6 -3 10 -1 10 5 0 6 5 8 10 5 6 -3 10 -1
10 5 0 6 5 8 10 5 6 -3 10 -1 10 5 0 6 4 9 9 6 5 -4 11 -1 13 4 2 6 13 12 26
13 12 0 22 5 22 10 0 4 5 5 10 2 6 -3 10 -1 10 5 0 6 5 8 10 5 6 -3 10 -1 10
5 0 6 5 8 10 5 6 -3 10 -1 10 5 0 6 5 8 10 5 6 -3 10 -1 10 5 0 6 5 8 10 5 6
-3 10 -1 10 5 0 6 5 8 10 5 6 -3 10 -1 10 5 0 6 4 9 9 6 5 -4 11 -1 13 4 2 6
13 12 26 13 12 0 22 5 22 10 0 4 5 5 10 2 6 -3 10 -1 10 5 0 6 5 8 10 5 6 -3
10 -1 10 5 0 6 5 8 10 5 6 -3 10 -1 10 5 0 6 5 8 10 5 6 -3 10 -1 10 5 0 6 5
8 10 5 6 -3 10 -1 10 5 0 6 5 8 10 5 6 -3 10 -1 10 5 0 6 5 8 10 5 6 -3 10 -1
10 5 0 6 4 9 9 5 5 -3 12 -1 16 5 4 6 11 8 16 5 5 -4 9 -1 9 5 0 6 5 8 10 5 6
-3 10 -1 10 5 0 6 5 8 10 5 6 -3 10 -1 10 5 0 6 5 8 10 5 6 -3 10 -1 10 5 0 6
5 8 10 5 6 -3 10 -1 10 5 0 6 5 8 10 5 6 -3 10 -1 10 5 0 6 5 8 10 5 6 -3 10
-1 10 5 0 6 4 9 9 6 5 -4 11 -1 13 4 2 6 13 12 26 13 12 0 22 5 22 10 0 4 5 5
10 2 6 -3 10 -1 10 5 0 6 5 8 10 5 6 -3 10 -1 10 5 0 6 5 8 10 5 6 -3 10 -1
10 5 0 6 5 8 10 5 6 -3 10 -1 10 5 0 6 5 8 10 5 6 -3 10 -1 10 5 0 6 5 8 10 5
6 -3 10 -1 10 5 0 6 4 9 9 6 5 -4 11 -1 13 4 2 6 13 12 26 13 12 0 22 5 22 10
0 4 5 5 10 2 6 -3 10 -1 10 5 0 6 5 8 10 5 6 -3 10 -1 10 5 0 6 5 8 10 5 6 -3
10 -1 10 5 0 6 5 8 10 5 6 -3 10 -1 10 5 0 6 5 8 10 5 6 -3 10 -1 10 5 0 6 5
8 10 5 6 -3 10 -2 10 3 0 12 56 33 64 25 3 -4 6 0 6 7 0 11 3 11 12 2 8 -8 16
-9 27 -1z m149 -172 c-6 -4 -7 -12 -4 -18 4 -6 2 -11 -4 -11 -7 0 -10 -7 -7
-15 4 -8 2 -17 -4 -20 -5 -4 -7 -10 -4 -15 3 -5 1 -11 -5 -15 -6 -4 -8 -10 -5
-15 3 -5 1 -11 -4 -15 -6 -3 -8 -12 -4 -20 3 -8 0 -15 -6 -15 -6 0 -8 -7 -5
-15 4 -8 1 -15 -5 -15 -6 0 -8 -7 -5 -15 4 -8 1 -15 -5 -15 -6 0 -8 -7 -5 -15
4 -8 1 -15 -6 -15 -7 0 -10 -7 -6 -15 3 -8 1 -15 -5 -15 -6 0 -9 -7 -5 -15 3
-8 1 -15 -5 -15 -6 0 -9 -7 -6 -15 4 -8 2 -17 -4 -20 -5 -4 -7 -10 -4 -15 3
-5 1 -11 -5 -15 -6 -4 -8 -10 -5 -15 3 -5 1 -11 -4 -15 -6 -3 -8 -12 -4 -20 3
-8 0 -15 -6 -15 -6 0 -8 -7 -5 -15 4 -8 1 -15 -5 -15 -6 0 -8 -7 -5 -15 4 -8
1 -15 -5 -15 -6 0 -8 -7 -5 -15 4 -8 1 -15 -6 -15 -7 0 -10 -7 -6 -15 3 -8 1
-15 -5 -15 -6 0 -9 -7 -5 -15 3 -8 1 -15 -5 -15 -6 0 -9 -7 -6 -15 4 -8 2 -17
-4 -20 -5 -4 -7 -10 -4 -15 3 -5 1 -11 -5 -15 -6 -4 -8 -10 -5 -15 3 -5 1 -11
-4 -15 -6 -3 -8 -12 -4 -20 3 -8 0 -15 -6 -15 -6 0 -8 -7 -5 -15 4 -8 1 -15
-5 -15 -6 0 -8 -7 -5 -15 4 -8 1 -15 -5 -15 -6 0 -8 -7 -5 -15 4 -8 1 -15 -6
-15 -7 0 -10 -7 -6 -15 3 -8 1 -15 -5 -15 -6 0 -9 -7 -5 -15 3 -8 1 -15 -5
-15 -6 0 -9 -7 -6 -15 4 -8 2 -17 -4 -20 -5 -4 -7 -10 -4 -15 3 -5 1 -11 -5
-15 -6 -4 -8 -10 -5 -15 3 -5 1 -11 -4 -15 -6 -3 -8 -12 -4 -20 3 -8 0 -15 -6
-15 -6 0 -8 -7 -5 -15 4 -8 1 -15 -5 -15 -6 0 -8 -7 -5 -15 4 -8 1 -15 -5 -15
-6 0 -8 -7 -5 -15 4 -8 1 -15 -6 -15 -7 0 -10 -7 -6 -15 3 -8 1 -15 -5 -15 -6
0 -9 -7 -5 -15 3 -8 1 -15 -5 -15 -6 0 -9 -7 -6 -15 4 -8 2 -17 -4 -20 -5 -4
-7 -10 -4 -15 3 -5 1 -11 -5 -15 -6 -4 -8 -10 -5 -15 3 -5 1 -11 -4 -15 -6 -3
-8 -12 -4 -20 3 -8 0 -15 -6 -15 -6 0 -8 -7 -5 -15 4 -8 1 -15 -5 -15 -6 0 -8
-7 -5 -15 4 -8 1 -15 -5 -15 -6 0 -8 -7 -5 -15 4 -8 1 -15 -6 -15 -7 0 -10 -7
-6 -15 3 -8 1 -15 -5 -15 -6 0 -9 -7 -5 -15 3 -8 1 -15 -5 -15 -6 0 -9 -7 -6
-15 4 -8 2 -17 -4 -20 -5 -4 -7 -10 -4 -15 3 -5 1 -11 -5 -15 -6 -4 -8 -10 -5
-15 3 -5 1 -11 -4 -15 -6 -3 -8 -12 -4 -20 3 -8 0 -15 -6 -15 -6 0 -8 -7 -5
-15 4 -8 1 -15 -5 -15 -6 0 -8 -7 -5 -15 4 -8 1 -15 -5 -15 -6 0 -8 -7 -5 -15
4 -8 1 -15 -6 -15 -7 0 -10 -7 -6 -15 3 -8 1 -15 -5 -15 -6 0 -9 -7 -5 -15 3
-8 1 -15 -5 -15 -6 0 -9 -7 -6 -15 4 -8 2 -17 -4 -20 -5 -4 -7 -10 -4 -15 3
-5 1 -11 -5 -15 -6 -4 -8 -10 -5 -15 3 -5 1 -11 -4 -15 -6 -3 -8 -12 -4 -20 3
-8 0 -15 -6 -15 -6 0 -8 -7 -5 -15 4 -8 1 -15 -5 -15 -6 0 -8 -7 -5 -15 4 -8
1 -15 -5 -15 -6 0 -8 -7 -5 -15 4 -8 1 -15 -6 -15 -7 0 -10 -7 -6 -15 3 -8 1
-15 -5 -15 -6 0 -9 -7 -5 -15 3 -8 1 -15 -5 -15 -6 0 -9 -7 -5 -15 3 -8 1 -15
-5 -15 -6 0 -9 -7 -6 -15 4 -8 2 -17 -4 -20 -5 -4 -7 -10 -4 -15 3 -5 1 -11
-5 -15 -6 -4 -8 -10 -5 -15 3 -5 1 -11 -4 -15 -6 -3 -8 -12 -4 -20 5 -16 -16
-21 -33 -8 -5 5 -1 0 9 -10 11 -9 15 -17 10 -17 -6 0 -58 52 -117 115 -59 63
-113 114 -119 112 -7 -1 -11 4 -9 11 1 6 -2 11 -6 10 -5 -2 -42 31 -82 72 -40
41 -65 64 -55 50 10 -14 -22 16 -69 65 -48 50 -91 89 -95 88 -5 -1 -39 29 -76
68 l-67 71 20 22 c71 79 1252 1389 1281 1421 20 21 27 33 16 26 -11 -7 0 5 24
28 32 30 47 38 52 29 4 -7 3 -15 -3 -19z"/>
</g>
</svg>
