<?xml version="1.0" ?><!DOCTYPE svg  PUBLIC '-//W3C//DTD SVG 20010904//EN'  'http://www.w3.org/TR/2001/REC-SVG-20010904/DTD/svg10.dtd'><svg height="256.000000pt" preserveAspectRatio="xMidYMid meet" version="1.0" viewBox="0 0 256.000000 256.000000" width="256.000000pt" xmlns="http://www.w3.org/2000/svg"><g fill="#000000" stroke="none" transform="translate(0.000000,256.000000) scale(0.100000,-0.100000)"><path d="M2354 2457 c-112 -49 -271 -157 -499 -341 -261 -209 -648 -555 -1007 -898 -218 -209 -247 -252 -256 -382 -5 -83 7 -132 45 -177 83 -98 273 -98 398 0 68 55 748 818 1021 1146 226 273 333 421 390 540 19 38 34 79 34 90 0 49 -45 57 -126 22z m-34 -144 c0 -27 -282 -362 -860 -1023 -537 -613 -507 -585 -616 -585 -74 0 -111 22 -133 79 -19 50 -1 132 42 188 92 120 1107 1010 1456 1277 87 67 111 80 111 64z"/><path d="M407 666 c-52 -19 -67 -33 -93 -91 -19 -40 -24 -67 -24 -135 0 -77 -3 -90 -34 -145 -29 -52 -41 -64 -99 -95 -37 -19 -67 -40 -67 -47 0 -6 21 -21 47 -34 153 -74 459 41 546 206 59 111 0 267 -125 329 -58 29 -95 32 -151 12z"/></g></svg>