<?xml version="1.0" ?><!DOCTYPE svg  PUBLIC '-//W3C//DTD SVG 20010904//EN'  'http://www.w3.org/TR/2001/REC-SVG-20010904/DTD/svg10.dtd'><svg height="256.000000pt" preserveAspectRatio="xMidYMid meet" version="1.0" viewBox="0 0 256.000000 256.000000" width="256.000000pt" xmlns="http://www.w3.org/2000/svg"><g fill="#000000" stroke="none" transform="translate(0.000000,256.000000) scale(0.100000,-0.100000)"><path d="M1271 2364 c-116 -31 -135 -47 -619 -528 -255 -254 -477 -482 -493 -508 -127 -197 -95 -427 96 -683 75 -102 287 -315 385 -387 245 -182 441 -221 639 -126 59 28 112 78 509 472 349 347 442 435 437 411 -13 -57 -47 -115 -105 -179 -66 -73 -96 -138 -86 -189 15 -81 145 -175 227 -164 52 7 93 45 114 106 25 72 30 229 11 346 -34 203 -36 240 -21 345 31 223 -36 386 -264 645 -147 166 -330 316 -468 385 -133 66 -252 84 -362 54z m207 -115 c75 -18 222 -93 313 -160 105 -78 232 -205 299 -301 56 -78 120 -198 120 -223 0 -53 -166 -74 -449 -57 -198 12 -361 33 -403 52 -25 12 -79 91 -127 187 -87 175 -95 368 -18 452 51 56 156 76 265 50z m-429 -307 c15 -141 52 -247 125 -357 69 -104 248 -288 347 -358 140 -99 306 -164 441 -174 l76 -6 -360 -356 c-233 -230 -380 -369 -418 -392 -142 -87 -308 -74 -496 41 -201 122 -417 358 -498 544 -28 65 -31 80 -31 181 0 174 -5 167 434 610 201 204 367 370 368 370 1 0 7 -46 12 -103z"/></g></svg>