<?xml version="1.0" ?><!DOCTYPE svg  PUBLIC '-//W3C//DTD SVG 20010904//EN'  'http://www.w3.org/TR/2001/REC-SVG-20010904/DTD/svg10.dtd'><svg height="256.000000pt" preserveAspectRatio="xMidYMid meet" version="1.0" viewBox="0 0 256.000000 256.000000" width="256.000000pt" xmlns="http://www.w3.org/2000/svg"><g fill="#000000" stroke="none" transform="translate(0.000000,256.000000) scale(0.100000,-0.100000)"><path d="M2053 2465 c-29 -8 -71 -24 -93 -35 -76 -39 -298 -215 -487 -387 -97 -89 -103 -93 -147 -93 -76 0 -148 -34 -219 -103 -87 -84 -111 -133 -112 -222 0 -45 7 -87 19 -118 l19 -48 -371 -372 c-404 -405 -422 -427 -422 -531 0 -52 -28 -109 -95 -191 -68 -85 -80 -137 -46 -203 22 -43 84 -82 129 -82 46 0 75 14 131 64 71 63 123 87 209 97 47 5 88 17 113 31 21 13 206 188 412 390 l374 367 52 -19 c72 -28 162 -26 226 4 55 25 161 129 190 186 11 21 20 66 23 110 l5 74 72 81 c39 44 144 171 232 282 175 219 200 264 210 384 10 117 -43 239 -127 295 -77 51 -195 66 -297 39z m-1021 -1693 c-180 -178 -353 -341 -386 -363 -50 -34 -66 -39 -114 -39 -60 0 -86 -12 -218 -102 -116 -78 -120 -68 -29 70 76 117 87 144 79 188 -12 67 27 116 392 482 l341 343 131 -128 131 -128 -327 -323z"/></g></svg>