<?xml version="1.0" ?><!DOCTYPE svg  PUBLIC '-//W3C//DTD SVG 20010904//EN'  'http://www.w3.org/TR/2001/REC-SVG-20010904/DTD/svg10.dtd'><svg height="256.000000pt" preserveAspectRatio="xMidYMid meet" version="1.0" viewBox="0 0 256.000000 256.000000" width="256.000000pt" xmlns="http://www.w3.org/2000/svg"><g fill="#000000" stroke="none" transform="translate(0.000000,256.000000) scale(0.100000,-0.100000)"><path d="M1748 2471 c-82 -26 -182 -111 -306 -260 -53 -64 -144 -165 -201 -226 -57 -60 -142 -154 -189 -208 -46 -54 -110 -119 -141 -143 -54 -43 -166 -104 -191 -104 -24 0 -2 69 70 215 86 175 99 232 81 343 -17 100 -43 160 -91 207 -65 64 -156 56 -205 -19 -10 -14 -27 -74 -40 -133 -29 -139 -58 -222 -165 -473 -48 -113 -92 -225 -98 -250 -6 -25 -20 -128 -32 -230 -35 -301 -68 -431 -139 -535 -32 -47 -27 -66 35 -119 30 -27 150 -140 265 -252 245 -239 242 -237 308 -149 41 54 120 124 170 150 14 7 62 25 106 40 149 49 438 214 661 377 88 64 121 80 289 145 380 147 545 248 545 335 0 75 -116 149 -208 132 -20 -4 -88 -29 -151 -56 -127 -55 -370 -140 -384 -135 -5 1 32 25 83 52 92 50 405 274 514 369 108 93 145 166 127 248 -14 60 -49 88 -109 88 -78 -1 -134 -32 -338 -191 -108 -83 -206 -151 -289 -199 -46 -27 -38 -18 65 71 41 35 125 109 185 164 61 55 152 136 202 179 100 86 139 134 149 182 9 45 -12 106 -47 139 -25 25 -38 30 -77 29 -60 -1 -117 -31 -254 -134 -101 -77 -148 -118 -398 -347 -191 -176 -182 -139 19 72 145 153 313 363 351 439 39 77 38 107 -3 153 -30 32 -40 36 -88 39 -30 2 -66 -1 -81 -5z m102 -96 c0 -3 -10 -25 -21 -48 -42 -82 -196 -272 -367 -451 -124 -131 -155 -179 -155 -244 0 -55 26 -84 76 -84 57 0 98 27 242 160 273 252 428 378 527 428 49 25 52 25 65 8 30 -41 7 -73 -143 -201 -51 -43 -154 -134 -230 -202 -77 -68 -170 -150 -207 -183 -111 -98 -149 -179 -101 -215 63 -47 253 47 537 266 141 109 238 171 270 171 57 0 6 -96 -96 -180 -132 -107 -391 -291 -467 -331 -41 -21 -91 -52 -111 -68 -89 -74 -91 -191 -4 -191 76 0 299 72 527 169 110 47 127 49 159 21 l24 -20 -35 -30 c-48 -42 -222 -125 -429 -204 -209 -80 -207 -79 -323 -163 -221 -160 -519 -328 -672 -377 -89 -30 -149 -68 -230 -148 l-58 -59 -167 162 c-91 89 -188 183 -214 209 l-49 47 31 55 c40 71 82 267 111 518 11 102 26 201 32 220 6 19 50 127 98 240 97 227 132 329 161 470 30 145 58 156 114 45 25 -50 29 -70 30 -139 0 -80 -1 -83 -72 -231 -40 -82 -77 -170 -83 -194 -14 -54 -5 -112 23 -147 19 -24 25 -26 75 -21 114 12 258 105 380 247 36 41 133 149 217 240 84 91 186 206 227 256 78 94 126 137 199 179 39 22 109 35 109 20z"/></g></svg>