<?xml version="1.0" standalone="no"?>
<!DOCTYPE svg PUBLIC "-//W3C//DTD SVG 20010904//EN"
 "http://www.w3.org/TR/2001/REC-SVG-20010904/DTD/svg10.dtd">
<svg version="1.0" xmlns="http://www.w3.org/2000/svg"
 width="320.000000pt" height="320.000000pt" viewBox="0 0 320.000000 320.000000"
 preserveAspectRatio="xMidYMid meet">
<metadata>
Created by potrace 1.14, written by Peter Selinger 2001-2017
</metadata>
<g transform="translate(0.000000,320.000000) scale(0.100000,-0.100000)"
fill="#000000" stroke="none">
<path d="M2096 2774 c-101 -24 -192 -80 -286 -174 -78 -79 -173 -215 -187
-271 -3 -10 -8 -19 -12 -19 -3 0 -25 36 -49 79 -111 201 -272 333 -458 377
-108 25 -396 16 -484 -15 -255 -89 -454 -356 -532 -711 -20 -95 -22 -130 -22
-385 0 -254 2 -290 22 -384 28 -129 73 -246 160 -421 61 -122 75 -143 152
-220 162 -162 419 -271 771 -327 165 -26 713 -26 878 0 328 52 596 160 751
304 122 113 154 171 266 488 51 143 65 244 71 486 8 320 -17 495 -96 694 -104
259 -298 451 -502 500 -84 19 -360 19 -443 -1z m363 -246 c68 -32 101 -57 170
-127 129 -130 213 -286 266 -495 44 -176 48 -280 16 -451 -6 -27 -13 -75 -17
-105 -11 -89 -96 -319 -153 -414 -89 -147 -212 -235 -439 -315 -79 -28 -171
-55 -205 -62 -34 -7 -66 -15 -72 -19 -15 -11 -177 -38 -302 -50 -83 -8 -144
-8 -230 0 -174 17 -417 67 -483 100 -30 15 -66 31 -80 34 -50 15 -207 98 -265
141 -33 25 -85 74 -115 109 -164 191 -306 625 -279 851 48 404 268 733 552
826 l67 22 67 -22 c37 -12 95 -39 128 -59 73 -44 216 -187 295 -296 32 -45 78
-95 102 -113 39 -28 54 -32 114 -34 105 -3 168 30 208 109 79 157 308 359 460
408 56 18 97 10 195 -38z"/>
</g>
</svg>
