<?xml version="1.0" standalone="no"?>
<!DOCTYPE svg PUBLIC "-//W3C//DTD SVG 20010904//EN"
 "http://www.w3.org/TR/2001/REC-SVG-20010904/DTD/svg10.dtd">
<svg version="1.0" xmlns="http://www.w3.org/2000/svg"
 width="320.000000pt" height="320.000000pt" viewBox="0 0 320.000000 320.000000"
 preserveAspectRatio="xMidYMid meet">
<metadata>
Created by potrace 1.14, written by Peter Selinger 2001-2017
</metadata>
<g transform="translate(0.000000,320.000000) scale(0.100000,-0.100000)"
fill="#000000" stroke="none">
<path d="M520 2965 l0 -65 -145 0 -145 0 0 -155 0 -155 -60 0 -60 0 0 -35 0
-35 60 0 60 0 0 -150 0 -150 145 0 145 0 0 -61 0 -60 33 3 c32 3 32 4 35 61
l3 57 159 0 160 0 0 150 0 150 60 0 60 0 0 35 0 35 -60 0 -60 0 0 155 0 155
-160 0 -160 0 0 65 0 65 -35 0 -35 0 0 -65z m320 -405 l0 -270 -275 0 -275 0
0 270 0 270 275 0 275 0 0 -270z"/>
<path d="M2580 2945 l0 -65 -145 0 -145 0 0 -155 0 -155 -60 0 -60 0 0 -35 0
-35 60 0 60 0 0 -150 0 -150 145 0 145 0 0 -60 0 -60 30 0 30 0 0 60 0 60 160
0 160 0 0 150 0 150 66 0 65 0 -3 33 -3 32 -60 1 -60 1 -3 157 -3 156 -159 0
-160 0 0 65 0 65 -30 0 -30 0 0 -65z m320 -405 l0 -275 -163 2 c-89 1 -213 2
-274 3 l-113 0 0 270 0 269 113 3 c61 2 185 3 274 3 l163 0 0 -275z"/>
<path d="M1530 2505 l0 -65 -145 0 -145 0 0 -155 0 -155 -60 0 -60 0 0 -35 0
-35 60 0 60 0 0 -150 0 -150 145 0 145 0 0 -60 0 -60 30 0 30 0 0 60 0 60 160
0 160 0 0 150 0 150 66 0 65 0 -3 33 -3 32 -60 1 -60 1 -3 157 -3 156 -159 0
-160 0 0 65 0 65 -30 0 -30 0 0 -65z m320 -405 l0 -275 -163 2 c-89 1 -213 2
-274 3 l-113 0 0 270 0 269 113 3 c61 2 185 3 274 3 l163 0 0 -275z"/>
<path d="M2340 1785 l0 -65 -145 0 -145 0 0 -155 0 -155 -60 0 -60 0 0 -35 0
-35 60 0 60 0 0 -150 0 -150 145 0 145 0 0 -60 0 -60 30 0 30 0 0 60 0 60 160
0 160 0 0 150 0 150 66 0 65 0 -3 33 -3 32 -60 1 -60 1 -3 157 -3 156 -159 0
-160 0 0 65 0 65 -30 0 -30 0 0 -65z m320 -405 l0 -275 -163 2 c-89 1 -213 2
-274 3 l-113 0 0 270 0 269 113 3 c61 2 185 3 274 3 l163 0 0 -275z"/>
<path d="M760 1765 l0 -65 -145 0 -145 0 0 -155 0 -155 -60 0 -60 0 0 -35 0
-35 60 0 60 0 0 -150 0 -150 145 0 145 0 0 -60 0 -60 30 0 30 0 0 60 0 60 160
0 160 0 0 150 0 150 66 0 65 0 -3 33 -3 32 -60 1 -60 1 -3 157 -3 156 -159 0
-160 0 0 65 0 65 -30 0 -30 0 0 -65z m320 -405 l0 -275 -163 2 c-89 1 -213 2
-274 3 l-113 0 0 270 0 269 113 3 c61 2 185 3 274 3 l163 0 0 -275z"/>
<path d="M1580 975 l0 -65 -145 0 -145 0 0 -155 0 -155 -60 0 -60 0 0 -35 0
-35 60 0 60 0 0 -150 0 -150 145 0 145 0 0 -60 0 -60 30 0 30 0 0 60 0 60 160
0 160 0 0 150 0 150 66 0 65 0 -3 33 -3 32 -60 1 -60 1 -3 157 -3 156 -159 0
-160 0 0 65 0 65 -30 0 -30 0 0 -65z m320 -405 l0 -275 -163 2 c-89 1 -213 2
-274 3 l-113 0 0 270 0 269 113 3 c61 2 185 3 274 3 l163 0 0 -275z"/>
</g>
</svg>
