<?xml version="1.0" standalone="no"?>
<!DOCTYPE svg PUBLIC "-//W3C//DTD SVG 20010904//EN"
 "http://www.w3.org/TR/2001/REC-SVG-20010904/DTD/svg10.dtd">
<svg version="1.0" xmlns="http://www.w3.org/2000/svg"
 width="320.000000pt" height="320.000000pt" viewBox="0 0 320.000000 320.000000"
 preserveAspectRatio="xMidYMid meet">
<metadata>
Created by potrace 1.14, written by Peter Selinger 2001-2017
</metadata>
<g transform="translate(0.000000,320.000000) scale(0.100000,-0.100000)"
fill="#000000" stroke="none">
<path d="M1340 2894 c-419 -52 -774 -244 -1000 -542 -70 -92 -154 -267 -187
-387 -26 -97 -27 -108 -27 -360 0 -252 1 -263 27 -360 125 -462 527 -804 1072
-912 131 -26 619 -26 750 0 374 74 681 256 885 525 70 92 154 267 187 387 26
97 27 108 27 360 0 252 -1 263 -27 360 -123 455 -516 794 -1047 907 -78 16
-141 20 -360 23 -146 2 -281 1 -300 -1z m440 -220 c351 -61 676 -254 880 -522
112 -147 211 -404 211 -547 0 -143 -99 -400 -211 -547 -204 -269 -520 -456
-885 -524 -168 -31 -327 -18 -540 47 -274 84 -529 258 -695 477 -112 147 -211
404 -211 547 0 143 99 400 211 547 226 298 588 493 1000 541 48 6 139 -1 240
-19z"/>
</g>
</svg>
