<?xml version="1.0" standalone="no"?>
<!DOCTYPE svg PUBLIC "-//W3C//DTD SVG 20010904//EN"
 "http://www.w3.org/TR/2001/REC-SVG-20010904/DTD/svg10.dtd">
<svg version="1.0" xmlns="http://www.w3.org/2000/svg"
 width="320.000000pt" height="320.000000pt" viewBox="0 0 320.000000 320.000000"
 preserveAspectRatio="xMidYMid meet">
<metadata>
Created by potrace 1.14, written by Peter Selinger 2001-2017
</metadata>
<g transform="translate(0.000000,320.000000) scale(0.100000,-0.100000)"
fill="#000000" stroke="none">
<path d="M1773 3106 c-364 -69 -656 -337 -742 -682 -11 -43 -22 -100 -26 -126
-6 -45 -8 -48 -43 -53 -343 -52 -612 -246 -747 -539 -70 -149 -80 -213 -80
-481 0 -220 2 -247 23 -324 74 -273 247 -481 497 -603 174 -84 219 -92 515
-92 296 0 341 8 515 92 288 140 477 402 520 724 6 45 8 48 43 53 343 52 612
246 747 539 70 149 80 213 80 481 0 220 -2 247 -23 324 -74 273 -247 481 -497
603 -164 79 -222 90 -485 94 -159 2 -246 -1 -297 -10z m403 -216 c218 -55 424
-202 553 -393 76 -112 141 -298 141 -402 0 -104 -65 -290 -141 -402 -57 -85
-121 -155 -199 -216 -82 -66 -257 -157 -311 -162 -19 -1 -52 -9 -74 -17 -22
-9 -56 -18 -77 -22 -35 -6 -37 -9 -51 -69 -82 -341 -258 -576 -532 -709 -114
-55 -232 -88 -315 -88 -186 0 -472 145 -611 311 -130 154 -219 359 -219 504 0
145 89 350 219 504 106 127 316 254 471 286 41 9 81 22 90 30 19 18 53 83 133
261 68 149 101 204 176 293 139 166 419 309 607 310 33 1 96 -8 140 -19z"/>
</g>
</svg>
