<?xml version="1.0" standalone="no"?>
<!DOCTYPE svg PUBLIC "-//W3C//DTD SVG 20010904//EN"
 "http://www.w3.org/TR/2001/REC-SVG-20010904/DTD/svg10.dtd">
<svg version="1.0" xmlns="http://www.w3.org/2000/svg"
 width="320.000000pt" height="320.000000pt" viewBox="0 0 320.000000 320.000000"
 preserveAspectRatio="xMidYMid meet">
<metadata>
Created by potrace 1.14, written by Peter Selinger 2001-2017
</metadata>
<g transform="translate(0.000000,320.000000) scale(0.100000,-0.100000)"
fill="#000000" stroke="none">
<path d="M1795 2961 c-22 -10 -48 -27 -57 -37 -26 -30 -48 -89 -48 -132 0 -44
-24 -72 -80 -96 -89 -37 -213 -27 -271 21 -16 14 -43 53 -58 87 -48 106 -108
146 -226 154 -178 11 -424 -115 -484 -248 -28 -61 -26 -105 5 -167 27 -52 27
-52 9 -98 -20 -54 -112 -157 -155 -175 -28 -11 -33 -10 -55 10 -14 13 -41 24
-68 27 -39 5 -48 1 -80 -27 -31 -27 -42 -48 -71 -143 -69 -224 -91 -378 -91
-657 0 -237 11 -299 61 -360 48 -57 164 -96 164 -55 0 9 12 20 28 26 80 31
233 -85 277 -212 21 -59 19 -75 -15 -123 -42 -57 -52 -98 -39 -157 20 -95 121
-188 290 -268 136 -65 247 -94 364 -95 84 -1 106 3 140 21 59 31 92 72 106
128 15 67 21 76 58 102 63 43 149 65 272 70 136 6 212 -10 250 -54 69 -79 117
-119 155 -131 56 -16 157 -15 229 3 144 37 355 173 446 287 55 70 79 123 79
180 0 80 -27 126 -103 175 -52 33 -87 109 -94 206 -9 121 24 177 104 177 73 1
149 81 179 191 38 137 26 365 -25 501 -28 74 -98 151 -156 174 -58 22 -137 15
-168 -15 -29 -26 -57 -27 -106 -1 -72 36 -120 119 -107 183 4 18 22 57 41 89
46 73 52 107 31 163 -41 106 -244 229 -461 280 -93 21 -219 20 -270 -4z m295
-211 c74 -25 174 -72 209 -99 l24 -18 -34 -69 c-30 -60 -34 -77 -33 -149 0
-59 6 -95 23 -138 32 -81 115 -168 199 -209 59 -29 76 -33 147 -33 59 0 89 5
114 19 34 18 35 18 48 0 8 -11 22 -44 31 -74 21 -68 24 -286 4 -341 -11 -32
-19 -38 -60 -49 -145 -36 -220 -136 -229 -305 -10 -179 64 -363 175 -435 l23
-15 -28 -39 c-40 -56 -153 -141 -251 -188 -65 -32 -100 -42 -152 -46 l-67 -4
-32 45 c-70 102 -177 148 -362 155 -148 5 -251 -12 -369 -61 -103 -42 -190
-127 -211 -207 -14 -50 -18 -55 -45 -58 -45 -4 -162 22 -250 58 -82 33 -208
111 -217 134 -3 8 5 29 18 46 87 118 36 330 -114 479 -83 83 -166 128 -264
143 l-74 12 -6 86 c-10 131 20 630 39 661 2 3 30 9 64 12 109 10 218 82 301
201 86 122 109 243 62 340 -17 38 -17 38 7 57 14 11 58 37 99 56 61 30 85 37
139 37 70 1 65 5 103 -78 46 -102 155 -174 297 -197 132 -22 283 18 373 99 55
49 99 127 99 176 l0 29 68 -5 c37 -3 96 -15 132 -28z"/>
</g>
</svg>
