<?xml version="1.0" standalone="no"?>
<!DOCTYPE svg PUBLIC "-//W3C//DTD SVG 20010904//EN"
 "http://www.w3.org/TR/2001/REC-SVG-20010904/DTD/svg10.dtd">
<svg version="1.0" xmlns="http://www.w3.org/2000/svg"
 width="320.000000pt" height="320.000000pt" viewBox="0 0 320.000000 320.000000"
 preserveAspectRatio="xMidYMid meet">
<metadata>
Created by potrace 1.14, written by Peter Selinger 2001-2017
</metadata>
<g transform="translate(0.000000,320.000000) scale(0.100000,-0.100000)"
fill="#000000" stroke="none">
<path d="M2450 2772 c-151 -75 -410 -203 -575 -284 -165 -81 -471 -231 -680
-334 -209 -102 -485 -238 -613 -300 -218 -107 -234 -117 -248 -150 -13 -31
-13 -42 -2 -77 7 -22 24 -48 38 -58 14 -11 167 -67 340 -125 173 -59 319 -111
324 -115 4 -4 -128 -159 -294 -346 -167 -186 -309 -348 -318 -361 -19 -28 -19
-94 -1 -119 8 -11 59 -59 114 -109 55 -49 115 -102 133 -119 46 -41 72 -54
107 -55 50 0 69 18 300 280 28 31 121 136 208 234 l159 177 135 -273 c74 -150
155 -315 179 -365 57 -122 111 -157 189 -121 35 16 47 41 115 242 32 94 118
344 190 556 72 212 165 482 205 600 40 118 101 296 135 395 34 99 94 277 135
395 40 118 89 262 109 319 47 135 47 172 2 217 -56 56 -73 52 -386 -104z"/>
</g>
</svg>
