<?xml version="1.0" standalone="no"?>
<!DOCTYPE svg PUBLIC "-//W3C//DTD SVG 20010904//EN"
 "http://www.w3.org/TR/2001/REC-SVG-20010904/DTD/svg10.dtd">
<svg version="1.0" xmlns="http://www.w3.org/2000/svg"
 width="320.000000pt" height="320.000000pt" viewBox="0 0 320.000000 320.000000"
 preserveAspectRatio="xMidYMid meet">
<metadata>
Created by potrace 1.14, written by Peter Selinger 2001-2017
</metadata>
<g transform="translate(0.000000,320.000000) scale(0.100000,-0.100000)"
fill="#000000" stroke="none">
<path d="M1447 3094 c-4 -4 -7 -99 -7 -211 l0 -203 -465 0 -465 0 0 -500 0
-500 -195 0 -195 0 0 -100 0 -100 195 0 195 0 0 -480 0 -480 465 0 465 0 0
-190 0 -190 105 0 105 0 0 190 0 190 510 0 510 0 0 480 0 480 195 0 195 0 0
100 0 100 -195 0 -195 0 0 500 0 500 -510 0 -510 0 -2 208 -3 207 -95 3 c-53
1 -99 0 -103 -4z m1023 -1494 l0 -880 -880 0 -880 0 0 880 0 880 880 0 880 0
0 -880z"/>
</g>
</svg>
