<?xml version="1.0" standalone="no"?>
<!DOCTYPE svg PUBLIC "-//W3C//DTD SVG 20010904//EN"
 "http://www.w3.org/TR/2001/REC-SVG-20010904/DTD/svg10.dtd">
<svg version="1.0" xmlns="http://www.w3.org/2000/svg"
 width="320.000000pt" height="320.000000pt" viewBox="0 0 320.000000 320.000000"
 preserveAspectRatio="xMidYMid meet">
<metadata>
Created by potrace 1.14, written by Peter Selinger 2001-2017
</metadata>
<g transform="translate(0.000000,320.000000) scale(0.100000,-0.100000)"
fill="#000000" stroke="none">
<path d="M879 2304 l-854 -854 700 -700 c385 -385 702 -700 705 -700 4 0 1675
1668 1710 1706 5 5 -1366 1380 -1391 1394 -12 7 -199 -175 -870 -846z m1454
38 l587 -587 -745 -745 -745 -745 -592 592 -592 592 739 741 c407 407 745 740
750 740 6 0 274 -264 598 -588z"/>
</g>
</svg>
