<?xml version="1.0" standalone="no"?>
<!DOCTYPE svg PUBLIC "-//W3C//DTD SVG 20010904//EN"
 "http://www.w3.org/TR/2001/REC-SVG-20010904/DTD/svg10.dtd">
<svg version="1.0" xmlns="http://www.w3.org/2000/svg"
 width="320.000000pt" height="320.000000pt" viewBox="0 0 320.000000 320.000000"
 preserveAspectRatio="xMidYMid meet">
<metadata>
Created by potrace 1.14, written by Peter Selinger 2001-2017
</metadata>
<g transform="translate(0.000000,320.000000) scale(0.100000,-0.100000)"
fill="#000000" stroke="none">
<path d="M2733 2708 c-56 -167 -105 -321 -108 -343 -20 -118 -130 -214 -285
-246 -77 -16 -232 -6 -302 19 -133 47 -194 119 -209 250 -20 167 -76 290 -179
392 -106 106 -231 160 -371 160 -222 0 -393 -142 -454 -377 -8 -32 -20 -120
-25 -195 -17 -236 -63 -436 -187 -813 -99 -301 -292 -793 -427 -1088 -19 -43
-37 -85 -38 -93 -3 -17 162 -98 174 -86 13 13 161 358 258 597 163 408 282
759 350 1035 42 172 58 272 70 430 14 191 34 252 107 322 51 49 99 68 175 68
162 0 305 -136 337 -320 7 -36 16 -89 21 -119 32 -181 183 -319 408 -372 114
-28 290 -23 397 11 209 65 338 200 379 395 9 39 56 189 106 334 50 146 89 269
87 275 -4 9 -158 66 -178 66 -2 0 -50 -136 -106 -302z"/>
</g>
</svg>
