<?xml version="1.0" ?><!DOCTYPE svg  PUBLIC '-//W3C//DTD SVG 20010904//EN'  'http://www.w3.org/TR/2001/REC-SVG-20010904/DTD/svg10.dtd'><svg height="256.000000pt" preserveAspectRatio="xMidYMid meet" version="1.0" viewBox="0 0 256.000000 256.000000" width="256.000000pt" xmlns="http://www.w3.org/2000/svg"><g fill="#000000" stroke="none" transform="translate(0.000000,256.000000) scale(0.100000,-0.100000)"><path d="M1572 2469 c-94 -14 -243 -71 -319 -122 -223 -149 -342 -376 -343 -650 0 -123 19 -222 61 -314 l28 -63 -145 -137 c-80 -76 -232 -230 -338 -343 -404 -429 -430 -465 -431 -592 0 -72 14 -102 69 -142 40 -30 142 -27 216 7 117 53 608 501 877 801 l80 90 81 -27 c229 -76 510 -44 722 83 144 86 248 211 304 369 30 83 31 91 30 246 -1 144 -3 169 -28 250 -83 274 -267 464 -511 530 -73 19 -267 27 -353 14z m262 -139 c182 -46 345 -177 424 -340 60 -122 75 -193 70 -315 -8 -163 -72 -297 -202 -425 -96 -94 -183 -146 -297 -175 -77 -21 -255 -15 -332 9 -212 68 -360 223 -413 436 -22 86 -14 277 14 366 71 222 248 402 445 450 80 19 203 17 291 -6z m-711 -1228 c29 -28 47 -55 47 -69 0 -30 -187 -231 -461 -495 -332 -319 -368 -348 -439 -348 -40 0 -80 39 -80 77 0 15 9 46 19 68 32 69 749 803 806 825 26 10 50 -3 108 -58z"/></g></svg>